<?xml version="1.0" standalone="no"?>
<!DOCTYPE svg PUBLIC "-//W3C//DTD SVG 1.1//EN" "http://www.w3.org/Graphics/SVG/1.1/DTD/svg11.dtd" >
<svg xmlns="http://www.w3.org/2000/svg" xmlns:xlink="http://www.w3.org/1999/xlink" version="1.1">
<metadata></metadata>
<defs>
<font id="batc_afd_gothicregular" horiz-adv-x="1024" >
<font-face units-per-em="2048" ascent="1638" descent="-410" />
<missing-glyph horiz-adv-x="500" />
<glyph horiz-adv-x="0" />
<glyph unicode="&#xd;" horiz-adv-x="0" />
<glyph unicode=" " />
<glyph unicode="!" d="M369 115q0 40 19 73t52 51.5t72 18.5t72 -19t52 -52t19 -72q0 -61 -41.5 -102.5t-101.5 -41.5q-40 0 -72.5 18.5t-51.5 52.5t-19 73zM408 1370h208l-30 -960h-148z" />
<glyph unicode="&#x22;" d="M242 803h176v659h-176v-659zM606 803h176v659h-176v-659z" />
<glyph unicode="#" d="M102 479l23 109h184l45 219h-184l23 108h184l102 496h96l-102 -496h164l102 496h99l-103 -496h185l-23 -108h-184l-45 -219h184l-23 -109h-182l-106 -518h-99l107 518h-164l-106 -518h-97l107 518h-187zM408 588h163l43 219h-161z" />
<glyph unicode="$" d="M111 152l100 104q77 -128 215 -156v580q-93 66 -153.5 125t-89.5 123t-29 137q0 86 34.5 157.5t99.5 117.5t154 61v178h95v-172q98 -9 173.5 -49t129.5 -117l-90 -96q-85 115 -197 127v-471q114 -86 179 -151.5t97.5 -138t32.5 -171.5q0 -152 -83 -248.5t-242 -128.5 v-199h-95v195q-220 34 -331 193zM309 1098q0 -62 37 -119t113 -115v406q-44 -3 -78.5 -26.5t-53 -62.5t-18.5 -83zM522 98q86 9 135.5 70t49.5 156q0 84 -45 153.5t-140 147.5v-527z" />
<glyph unicode="%" d="M25 442l927 555l45 -92l-927 -557zM117 1036q0 88 33 167t87 126t115 47q58 0 101.5 -26t67.5 -73.5t24 -111.5q0 -89 -33.5 -170t-87 -127.5t-113.5 -46.5q-87 0 -140.5 59t-53.5 156zM207 1016q0 -113 98 -113q35 0 70 40t57.5 103t22.5 125q0 121 -101 121 q-35 0 -69 -41.5t-56 -105t-22 -129.5zM479 197q0 91 33 168.5t87.5 124.5t113.5 47q58 0 101 -26t67 -73.5t24 -111.5q0 -90 -33 -170t-87.5 -127t-112.5 -47q-88 0 -140.5 58.5t-52.5 156.5zM569 178q0 -115 99 -115q52 0 99.5 87t47.5 184q0 121 -98 121q-34 0 -69 -41 t-57 -105t-22 -131z" />
<glyph unicode="&#x26;" d="M109 293q0 220 219 450q-135 236 -135 387q0 59 21 111t57 88.5t84.5 57t101.5 20.5q114 0 181 -68t67 -184q0 -101 -54.5 -212t-161.5 -220q122 -191 261 -375q22 71 22 137q0 85 -37 236l121 16q33 -123 33 -235q0 -68 -12.5 -129.5t-42.5 -128.5q75 -86 163 -142 l-82 -116q-96 67 -151 135q-144 -160 -348 -160q-137 0 -222 93t-85 239zM262 293q0 -95 48.5 -147t138.5 -52q126 0 235 127q-157 196 -281 389q-141 -185 -141 -317zM344 1116q0 -101 84 -272q65 73 97 140.5t32 137.5q0 74 -27 114t-77 40t-79.5 -43.5t-29.5 -116.5z" />
<glyph unicode="'" d="M201 1040l127 -122l465 466l-127 123z" />
<glyph unicode="(" d="M356 604q0 531 318 950h192q-340 -405 -340 -921q0 -225 73.5 -456t221.5 -490h-190q-72 130 -121 239t-84 222.5t-52.5 226t-17.5 229.5z" />
<glyph unicode=")" d="M152 -313q340 405 340 919q0 119 -19 233t-55.5 230t-91 235t-129.5 250h192q137 -241 205 -465t68 -454q0 -173 -35.5 -339t-106 -318t-176.5 -291h-192z" />
<glyph unicode="*" d="M109 1055l47 149l309 -135l-23 338h140l-23 -338l309 135l47 -149l-327 -74l225 -254l-129 -96l-170 293l-174 -293l-129 96l225 254z" />
<glyph unicode="+" d="M80 621v137h360v403h144v-403h360v-137h-360v-412h-144v412h-360z" />
<glyph unicode="," d="M322 141q0 69 46.5 114.5t120.5 45.5q60 0 110 -33t78 -92t28 -135q0 -90 -40.5 -163t-114 -113.5t-169.5 -40.5q-29 0 -43 2v135q94 1 142 35t61 110q-55 -10 -74 -10q-65 0 -105 39t-40 106z" />
<glyph unicode="-" d="M80 614v148h864v-148h-864z" />
<glyph unicode="." d="M348 135q0 69 47.5 116.5t116.5 47.5q67 0 115.5 -47.5t48.5 -116.5q0 -70 -48 -117t-116 -47q-69 0 -116.5 46.5t-47.5 117.5z" />
<glyph unicode="/" d="M86 -446l752 2011l106 -39l-751 -2011z" />
<glyph unicode="0" d="M104 684q0 236 48 398t139 243.5t221 81.5q129 0 220.5 -81.5t139.5 -243t48 -398.5q0 -236 -48 -398t-139 -243.5t-221 -81.5q-129 0 -220.5 81.5t-139.5 243t-48 398.5zM266 686q0 -588 244 -588q64 0 111 36.5t78 110.5t45 183.5t14 257.5q0 586 -244 586 q-127 0 -187.5 -145.5t-60.5 -440.5z" />
<glyph unicode="1" d="M244 0v133h223v1077l-223 -57v135l276 101h101v-1256h215v-133h-592z" />
<glyph unicode="2" d="M109 96q0 111 32.5 198.5t91.5 163.5t154 171q109 105 181 175t111.5 132.5t39.5 134.5q0 58 -26.5 104t-74 71.5t-112.5 25.5q-106 0 -166.5 -67t-71.5 -199h-147q6 194 105.5 297.5t277.5 103.5q114 0 198.5 -42.5t130.5 -118t46 -171.5t-46 -179t-105.5 -143 t-233.5 -225q-84 -81 -128 -130.5t-71.5 -112.5t-28.5 -148h602v-137h-753q-6 49 -6 96z" />
<glyph unicode="3" d="M100 197l138 69q48 -92 99.5 -132t129.5 -40q113 0 180.5 78.5t67.5 210.5q0 287 -266 287q-22 0 -70 -4v147h8q303 0 303 238q0 102 -59.5 161.5t-159.5 59.5q-65 0 -118 -33t-109 -104l-111 69q36 66 89.5 112t121 69.5t145.5 23.5q105 0 187.5 -45.5t128 -124.5 t45.5 -174q0 -99 -49.5 -169.5t-157.5 -135.5q236 -106 236 -373q0 -126 -51.5 -223.5t-143 -150t-207.5 -52.5q-271 0 -377 236z" />
<glyph unicode="4" d="M104 358v154l385 858h267v-878h174v-134h-174v-358h-148v358h-504zM225 492h383v772h-26z" />
<glyph unicode="5" d="M121 197l137 69q49 -91 100.5 -131.5t128.5 -40.5q118 0 180 82t62 238q0 159 -52 236t-161 77q-68 0 -122 -36t-105 -113l-117 34l64 758h602l-7 -133h-462l-41 -434q110 71 217 71q157 0 254.5 -119.5t97.5 -324.5q0 -110 -28 -198.5t-80.5 -148t-127.5 -91t-165 -31.5 q-271 0 -375 236z" />
<glyph unicode="6" d="M129 573q0 415 132 625.5t386 210.5q113 0 209 -61l-76 -121q-73 47 -147 47q-85 0 -154 -55.5t-113.5 -165.5t-62.5 -273q56 67 117 100t135 33q77 0 140 -32t111 -94.5t73.5 -150.5t25.5 -198q0 -145 -50.5 -253t-138.5 -166t-200 -58q-387 0 -387 612zM307 430 q0 -167 55.5 -252.5t161.5 -85.5q221 0 221 338q0 166 -57 254t-162 88q-70 0 -118.5 -39t-74.5 -115.5t-26 -187.5z" />
<glyph unicode="7" d="M145 1225v145h703v-145l-498 -1264h-162l498 1264h-541z" />
<glyph unicode="8" d="M68 358q0 134 65.5 234t183.5 147q-96 64 -143 140t-47 168q0 100 50.5 182t138 130t196.5 48q80 0 151 -26.5t122.5 -76t80.5 -116t29 -141.5q0 -184 -188 -308q79 -32 135 -87.5t85 -130.5t29 -163q0 -116 -56 -206.5t-158 -140.5t-230 -50t-230 50t-158 140.5 t-56 206.5zM227 377q0 -124 80 -202.5t205 -78.5q84 0 148 35t99.5 99.5t35.5 144.5q0 86 -36.5 152t-101.5 102.5t-145 36.5q-121 0 -203 -80.5t-82 -208.5zM289 1040q0 -112 63.5 -186t159.5 -74q63 0 114 33.5t80 93.5t29 133q0 111 -60.5 174.5t-162.5 63.5 q-104 0 -163.5 -63.5t-59.5 -174.5z" />
<glyph unicode="9" d="M115 942q0 142 50.5 248t139.5 162.5t199 56.5q391 0 391 -643q0 -401 -130.5 -603t-381.5 -202q-112 0 -201 57l74 123q80 -47 143 -47q87 0 155.5 57t111 166.5t57.5 276.5q-56 -70 -117.5 -102.5t-136.5 -32.5q-102 0 -182.5 58.5t-126 169.5t-45.5 255zM274 936 q0 -158 60.5 -247t165.5 -89q101 0 158 84t57 244q0 350 -223 350q-106 0 -162 -86t-56 -256z" />
<glyph unicode=":" d="M354 129q0 66 46 112t112 46q41 0 78.5 -21t58.5 -58.5t21 -78.5q0 -42 -20.5 -79t-57 -58t-80.5 -21q-66 0 -112 46t-46 112zM354 778q0 66 46 112t112 46q41 0 78.5 -21t58.5 -58.5t21 -78.5q0 -43 -21 -79.5t-57 -57t-80 -20.5q-66 0 -112 45t-46 112z" />
<glyph unicode=";" d="M322 141q0 69 46.5 114.5t120.5 45.5q60 0 110 -33t78 -92t28 -135q0 -90 -40.5 -163t-114 -113.5t-169.5 -40.5q-29 0 -43 2v135q94 1 142 35t61 110q-55 -10 -74 -10q-65 0 -105 39t-40 106zM322 778q0 41 21 78.5t58 58.5t78 21t78.5 -21t58.5 -58.5t21 -78.5 q0 -43 -21 -79.5t-57 -57t-80 -20.5q-67 0 -112 45t-45 112z" />
<glyph unicode="&#x3c;" d="M80 616v138l864 360v-151l-680 -279l680 -276v-154z" />
<glyph unicode="=" d="M147 459v129h730v-129h-730zM147 782v129h730v-129h-730z" />
<glyph unicode="&#x3e;" d="M80 254v154l680 276l-680 279v151l864 -360v-138z" />
<glyph unicode="?" d="M174 1096q0 96 39.5 167t114.5 108.5t178 37.5q99 0 174 -37t115.5 -102.5t40.5 -151.5q0 -70 -33.5 -149t-91.5 -144q-20 -23 -60.5 -58.5t-66 -63t-41 -62.5t-15.5 -84v-139h-145v162q0 97 24.5 142t88.5 101q74 69 105 102.5t52 76t21 96.5q0 79 -48 124.5t-132 45.5 q-82 0 -132.5 -47.5t-50.5 -124.5h-137zM326 115q0 62 40.5 102.5t100.5 40.5t102.5 -41t42.5 -102q0 -62 -43 -103t-102 -41q-60 0 -100.5 41.5t-40.5 102.5z" />
<glyph unicode="@" d="M88 684q0 174 28 310.5t83 228t134.5 138t182.5 46.5q102 0 185.5 -47.5t134.5 -132.5q57 -97 71.5 -201t14.5 -272v-348q-120 -91 -254 -91q-127 0 -198 88t-71 250q0 99 28.5 169.5t82.5 107.5t127 37q40 0 137 -33q-10 162 -79 250t-179 88q-266 0 -266 -586 q0 -588 266 -588q31 0 115 35l47 -129q-115 -43 -178 -43q-125 0 -218.5 83t-143.5 246.5t-50 393.5zM516 639q0 -107 45 -167t123 -60q39 0 98 20v399q-83 33 -125 33q-62 0 -101.5 -60.5t-39.5 -164.5z" />
<glyph unicode="A" d="M49 0l346 1389h234l346 -1389h-160l-100 412h-414l-98 -412h-154zM332 543h354q-88 377 -178 768q-16 -86 -57.5 -266.5t-118.5 -501.5z" />
<glyph unicode="B" d="M156 0v1370h303q206 0 313 -85t107 -245q0 -105 -55 -185t-158 -122q262 -91 262 -350q0 -198 -128 -290.5t-392 -92.5h-252zM309 131h187q129 0 198.5 64.5t69.5 181.5q0 98 -36.5 157t-110 86t-187.5 27h-121v-516zM309 768h131q141 0 209 60t68 186q0 122 -64.5 176.5 t-203.5 54.5h-140v-477z" />
<glyph unicode="C" d="M119 684q0 235 50 397.5t146 244t232 81.5q77 0 143 -23.5t112 -66t75 -106.5t36 -146l-151 -12q-35 219 -209 219q-274 0 -274 -586q0 -203 29.5 -332t93 -192.5t165.5 -63.5q86 0 135.5 46t81.5 153l129 -35q-30 -147 -120 -224t-232 -77q-219 0 -330.5 182.5 t-111.5 540.5z" />
<glyph unicode="D" d="M141 0v1370h314q128 0 218 -40.5t148 -123.5t86.5 -212.5t28.5 -309.5q0 -179 -28.5 -308.5t-86.5 -211.5t-148.5 -123t-217.5 -41h-314zM297 131h147q93 0 158 31t102 95.5t53.5 170t16.5 258.5q0 202 -30.5 323t-102.5 175.5t-197 54.5h-147v-1108z" />
<glyph unicode="E" d="M205 0v1370h698v-137h-543v-461h396v-131h-396v-504h562v-137h-717z" />
<glyph unicode="F" d="M225 0v1370h736v-137h-582v-461h428v-131h-428v-641h-154z" />
<glyph unicode="G" d="M88 684q0 235 50.5 397t146.5 244t233 82q99 0 175.5 -40t122 -118.5t54.5 -183.5l-145 -12q-35 219 -207 219q-268 0 -268 -586q0 -199 28.5 -328.5t89 -192.5t156.5 -63q230 0 230 387v33q-1 12 -2 27h-279v135h432v-702h-108v143q-126 -164 -279 -164q-137 0 -233 82 t-146.5 244t-50.5 397z" />
<glyph unicode="H" d="M141 0v1370h156v-600h430v600h156v-1370h-156v641h-430v-641h-156z" />
<glyph unicode="I" d="M258 0v135h176v1100h-176v135h506v-135h-176v-1100h176v-135h-506z" />
<glyph unicode="J" d="M84 410q0 69 4 106h145q-4 -58 -4 -84q0 -163 60.5 -248.5t169.5 -85.5q83 0 130 37.5t64 113t17 204.5v782h-211v135h364v-987q0 -422 -370 -422q-181 0 -275 114t-94 335z" />
<glyph unicode="K" d="M193 0v1370h153v-616l490 637l125 -72l-457 -594l504 -725h-189l-473 686v-686h-153z" />
<glyph unicode="L" d="M221 0v1370h154v-1233h583v-137h-737z" />
<glyph unicode="M" d="M76 0v1370h200l234 -741l252 741h184v-1370h-141v963q0 139 4 194q-13 -52 -19.5 -75.5t-12.5 -44t-11 -36.5l-217 -608h-84l-207 608q-28 87 -43 156q2 -27 2 -90v-104v-963h-141z" />
<glyph unicode="N" d="M139 0v1370h203l346 -852q29 -73 76 -239q-13 281 -20 542q-7 260 -9 549h150v-1395h-127l-484 1184q3 -558 15 -1159h-150z" />
<glyph unicode="O" d="M84 684q0 174 28 310.5t83 228t134.5 138t182.5 46.5q104 0 184 -46.5t133.5 -136t82 -224.5t28.5 -316q0 -354 -110.5 -538.5t-317.5 -184.5q-137 0 -233 82t-145.5 244t-49.5 397zM244 721q0 -315 65 -469t203 -154q268 0 268 588q0 586 -268 586q-63 0 -113 -35 t-85 -107t-52.5 -172.5t-17.5 -236.5z" />
<glyph unicode="P" d="M197 0v1370h307q213 0 321.5 -103.5t108.5 -308.5q0 -137 -54.5 -233t-161.5 -145.5t-263 -49.5h-105v-530h-153zM350 657h158q132 0 199 78t67 226q0 282 -268 282h-156v-586z" />
<glyph unicode="Q" d="M84 684q0 174 28 310.5t83 228t134.5 138t182.5 46.5q104 0 184 -46.5t133.5 -136t82 -224.5t28.5 -316q0 -510 -225 -661l180 -285l-127 -80l-199 315q-55 -6 -80 -6q-191 0 -298 185.5t-107 531.5zM244 721q0 -315 65 -469t203 -154q268 0 268 588q0 586 -268 586 q-63 0 -113 -35t-85 -107t-52.5 -172.5t-17.5 -236.5z" />
<glyph unicode="R" d="M172 0v1370h307q217 0 320.5 -95.5t103.5 -293.5q0 -134 -59.5 -231.5t-173.5 -149.5l327 -600h-174l-301 557h-196v-557h-154zM326 680h153q119 0 190.5 81.5t71.5 223.5q0 258 -262 258h-153v-563z" />
<glyph unicode="S" d="M106 166l115 115q48 -86 122.5 -134.5t158.5 -48.5q100 0 161.5 61.5t61.5 164.5q0 92 -55 165t-174 152q-138 91 -208 145t-111.5 122.5t-41.5 158.5q0 147 106.5 244.5t268.5 97.5q216 0 360 -203l-116 -86q-124 158 -260 158q-55 0 -99 -24t-69 -66t-25 -90 q0 -56 28 -101.5t81.5 -90.5t140.5 -103q122 -84 192 -146t108 -136t38 -175q0 -108 -51.5 -197t-143 -138.5t-202.5 -49.5q-230 0 -386 205z" />
<glyph unicode="T" d="M94 1235v135h836v-135h-340v-1235h-156v1235h-340z" />
<glyph unicode="U" d="M133 498v872h154v-872q0 -207 51.5 -304.5t179.5 -97.5q84 0 134.5 45t71.5 132.5t21 224.5v872h146v-872v-80q0 -76 -8.5 -135t-34.5 -113q-47 -99 -135.5 -154t-200.5 -55q-102 0 -187 46.5t-135 129.5q-24 43 -36 94.5t-16.5 115.5t-4.5 151z" />
<glyph unicode="V" d="M115 1370h157l207 -962q22 -108 33 -215q4 37 10 77.5t13.5 77t13.5 64.5l203 958h151l-309 -1388h-172z" />
<glyph unicode="W" d="M70 1370h145l70 -971q8 -86 8 -159v-31q-1 -13 -2 -29l180 719h76l188 -719v46q-1 18 -2 40q0 53 6 133l72 971h143l-108 -1388h-162l-176 634l-170 -634h-154z" />
<glyph unicode="X" d="M76 0l340 731l-312 639h172l228 -471l219 471h154l-295 -629l360 -741h-168l-276 565l-269 -565h-153z" />
<glyph unicode="Y" d="M109 1370h172l247 -606l236 606h149l-309 -766v-604h-155v575z" />
<glyph unicode="Z" d="M111 0v92l585 1137h-555v141h760v-67l-600 -1164h600v-139h-790z" />
<glyph unicode="[" d="M373 -317v1871h536v-127h-374v-1617h374v-127h-536z" />
<glyph unicode="\" d="M129 1495l141 45l615 -1679l-137 -51z" />
<glyph unicode="]" d="M55 -190h375v1617h-375v127h537v-1871h-537v127z" />
<glyph unicode="^" d="M-10 793h186l336 413l336 -413h186l-467 589h-110z" />
<glyph unicode="_" d="M0 -440h1024v-144h-1024v144z" />
<glyph unicode="`" d="M233 1384l465 -466l125 122l-467 467z" />
<glyph unicode="a" d="M131 307q0 106 42.5 187.5t119.5 124.5t180 43q29 0 71 -6t115 -21q5 30 5 55q0 103 -52 158t-147 55q-101 0 -186 -72l-56 123q133 80 264 80q139 0 224 -71q45 -36 66.5 -82.5t26.5 -97.5t5 -144v-340q0 -70 6 -105.5t30.5 -61.5t76.5 -40l-60 -123q-69 15 -109 46.5 t-63 90.5q-44 -63 -112 -96t-146 -33q-87 0 -156 41.5t-107 118t-38 170.5zM287 319q0 -103 52 -161t142 -58q178 0 178 240v172q-108 25 -163 25q-99 0 -154 -59t-55 -159z" />
<glyph unicode="b" d="M133 0q37 182 37 365v1067h149v-486q123 72 236 72q163 0 258.5 -136t95.5 -380q0 -164 -43.5 -279.5t-123.5 -175t-187 -59.5q-130 0 -252 112l-22 -100h-148zM319 227q59 -56 110.5 -84t105.5 -28q219 0 219 387t-224 387q-82 0 -211 -72v-590z" />
<glyph unicode="c" d="M141 492q0 166 55.5 290t158.5 188t241 64q167 0 262 -90v-160q0 -19 -5 -23.5t-24 -4.5h-10q-26 0 -34.5 2t-11.5 7.5t-6 19t-13 32.5q-18 40 -62.5 64t-101.5 24q-130 0 -211.5 -106.5t-81.5 -296.5q0 -97 17 -169t52.5 -125.5t84 -78.5t112.5 -25q72 0 133.5 33.5 t126.5 106.5l84 -101q-73 -88 -154 -130t-184 -42q-135 0 -231.5 61t-146.5 178t-50 282z" />
<glyph unicode="d" d="M115 502q0 244 95.5 380t258.5 136q124 0 236 -103v517h149v-1067q0 -183 37 -365h-148l-22 100q-122 -112 -252 -112q-107 0 -187 59.5t-123.5 175t-43.5 279.5zM270 502q0 -387 219 -387q99 0 216 112v551q-60 59 -110.5 85t-105.5 26q-219 0 -219 -387z" />
<glyph unicode="e" d="M119 502q0 162 52 283t146 185t215 64q89 0 160.5 -33t123.5 -97.5t79 -157.5t27 -214q0 -40 -2 -61h-631v-35q0 -163 66.5 -247.5t195.5 -84.5q62 0 131.5 22.5t157.5 68.5l63 -123q-204 -101 -360 -101q-204 0 -314 136.5t-110 394.5zM293 604h467q-9 145 -70 221 t-164 76q-67 0 -119 -35t-81.5 -100.5t-32.5 -161.5z" />
<glyph unicode="f" d="M168 872v134h242q-2 20 -2 61q0 91 22.5 163.5t65 119t105 70.5t144.5 24q137 0 244 -94l-98 -97q-83 58 -154 58q-178 0 -178 -224v-81h291v-134h-291v-872h-147v872h-244z" />
<glyph unicode="g" d="M104 543q0 150 44 256.5t125 161.5t190 55q130 0 254 -103l24 93h148q-37 -167 -37 -336v-420q0 -100 -2 -160q-2 -61 -12.5 -121.5t-32.5 -109.5q-45 -104 -137.5 -162.5t-212.5 -58.5q-92 0 -167.5 39.5t-144.5 123.5l107 90q55 -59 107.5 -89.5t111.5 -30.5 q114 0 173.5 92t59.5 274v27q-107 -94 -239 -94q-109 0 -190 55t-125 161.5t-44 256.5zM258 551q0 -361 223 -361q56 0 110 27t111 78v512q-117 102 -221 102q-223 0 -223 -358z" />
<glyph unicode="h" d="M168 0v1432h149v-580q110 166 265 166t218.5 -94.5t63.5 -294.5v-629h-149v608q0 96 -11 152.5t-43 87.5t-90 31q-52 0 -99 -32.5t-81.5 -95.5t-54 -157.5t-19.5 -216.5v-377h-149z" />
<glyph unicode="i" d="M205 872v134h403v-1006h-149v872h-254zM422 1288q0 46 31.5 78.5t76.5 32.5q47 0 79 -32t32 -79q0 -46 -32 -78t-79 -32q-46 0 -77 32t-31 78z" />
<glyph unicode="j" d="M63 39q0 31 3 47h139q-2 -12 -2 -37q0 -66 24 -116t67 -75.5t99 -25.5q102 0 136 62.5t34 203.5v774h-274v134h424v-908q0 -132 -33.5 -221.5t-105.5 -133.5t-181 -44q-151 0 -240.5 92t-89.5 248zM510 1288q0 46 31.5 78.5t76.5 32.5q47 0 79 -32t32 -79q0 -46 -32 -78 t-79 -32q-46 0 -77 32t-31 78z" />
<glyph unicode="k" d="M223 0v1432h150v-867l379 441h172l-389 -455l413 -551h-190l-334 442l-51 -55v-387h-150z" />
<glyph unicode="l" d="M188 1298v134h404v-1432h-150v1298h-254z" />
<glyph unicode="m" d="M16 1006h148q12 -74 12 -97q66 56 119 82.5t115 26.5q55 0 91 -22.5t68 -73.5q106 96 217 96q108 0 149.5 -69.5t41.5 -219.5v-729h-133v705q0 90 -26 131t-83 41q-48 0 -153 -60v-817h-133v705q0 90 -26 131t-83 41q-47 0 -154 -60v-817h-133v635q0 173 -37 371z" />
<glyph unicode="n" d="M131 1006h148q19 -112 26 -181q50 94 121 143.5t156 49.5q155 0 218.5 -94.5t63.5 -294.5v-629h-149v608q0 96 -11 153.5t-43 88.5t-90 31q-72 0 -129.5 -58.5t-91 -172t-33.5 -273.5v-377h-149v635q0 173 -37 371z" />
<glyph unicode="o" d="M109 502q0 251 108 391.5t295 140.5t295 -140.5t108 -391.5q0 -252 -108 -391.5t-295 -139.5t-295 139.5t-108 391.5zM266 502q0 -189 66.5 -293.5t179.5 -104.5q114 0 180 104.5t66 293.5q0 191 -65.5 295t-180.5 104q-113 0 -179.5 -104t-66.5 -295z" />
<glyph unicode="p" d="M133 1006h148l22 -103q124 115 252 115q163 0 258.5 -136t95.5 -380q0 -164 -43.5 -279.5t-123.5 -175t-187 -59.5q-63 0 -120 25t-116 77v-483h-149v1034q0 183 -37 365zM319 227q59 -56 110.5 -84t105.5 -28q219 0 219 387t-219 387q-55 0 -106 -27t-110 -84v-551z" />
<glyph unicode="q" d="M111 502q0 244 95.5 380t258.5 136q128 0 252 -115l24 103h148q-37 -182 -37 -365v-1034h-150v483q-111 -102 -237 -102q-107 0 -187 59.5t-123.5 175t-43.5 279.5zM268 502q0 -387 217 -387q102 0 217 112v551q-112 111 -217 111q-217 0 -217 -387z" />
<glyph unicode="r" d="M150 1006h167q60 -133 86 -230q63 88 113 139t102 77t113 26q102 0 169 -72.5t67 -179.5q0 -24 -4 -78h-140v17q0 159 -116 159q-61 0 -127.5 -61t-111 -173t-44.5 -253v-377h-150v485q0 87 -8 160.5t-36 164.5t-80 196z" />
<glyph unicode="s" d="M160 764q0 76 40 138t113.5 97t169.5 35q175 0 322 -116l-88 -113q-125 96 -238 96q-71 0 -116.5 -36t-45.5 -91q0 -41 19.5 -69.5t57 -52.5t98 -49.5t116.5 -49.5q82 -36 135 -78t79 -95t26 -120q0 -84 -41.5 -149.5t-119.5 -102.5t-181 -37q-98 0 -186.5 29t-155.5 84 l67 133q76 -57 142 -84t135 -27q86 0 132 37t46 101q0 79 -53.5 119t-194.5 100q-103 44 -160.5 82t-87.5 91t-30 128z" />
<glyph unicode="t" d="M133 872v134h217l12 317h150l-14 -317h305v-134h-309l-19 -430q-3 -128 -4 -128v3q0 -196 143 -196q53 0 103 34.5t86 96.5l90 -86q-43 -85 -121 -132.5t-176 -47.5q-95 0 -156 35.5t-88.5 108.5t-27.5 187v35l20 520h-211z" />
<glyph unicode="u" d="M156 377v629h149v-609q0 -95 10 -152.5t40 -88.5t91 -31q72 0 130 58.5t92 173.5t34 272v377h150v-635q0 -174 37 -371h-148q-19 110 -26 178q-102 -190 -279 -190q-103 0 -165 43t-88.5 128t-26.5 218z" />
<glyph unicode="v" d="M111 1006h168l235 -754l236 754h151l-328 -1006h-135z" />
<glyph unicode="w" d="M39 1006h160l108 -756l131 575h146l139 -577l119 758h143l-188 -1006h-125l-168 645l-156 -645h-125z" />
<glyph unicode="x" d="M76 0l342 528l-305 478h188l211 -336l217 336h158l-293 -457l352 -549h-188l-256 406l-264 -406h-162z" />
<glyph unicode="y" d="M0 -133l125 29q6 -52 36.5 -82.5t76.5 -30.5q54 0 91 39t70 123l52 129l-318 932h168l231 -713l281 713h145l-413 -1057q-61 -153 -132.5 -224t-179.5 -71q-98 0 -160 56.5t-73 156.5z" />
<glyph unicode="z" d="M123 0v127l536 735h-501v144h692v-129l-533 -736h543v-141h-737z" />
<glyph unicode="{" d="M307 530v175q69 16 97.5 42.5t35 66t6.5 126.5v240q0 131 22 210t76.5 115.5t151.5 36.5h23v-121q-96 -1 -118.5 -25t-22.5 -104v-266v-47q0 -97 -8 -159t-36.5 -111.5t-89.5 -90.5q58 -43 87.5 -95.5t38 -109.5t8.5 -141v-63v-266q0 -36 3.5 -61t17 -39t41.5 -19.5 t79 -7.5v-123h-23q-97 0 -151.5 37t-76.5 116t-22 211v238q0 88 -7 128.5t-36.5 66t-95.5 40.5z" />
<glyph unicode="|" d="M451 -483v2048h120v-2048h-120z" />
<glyph unicode="}" d="M268 -184q68 2 96.5 11.5t37 34.5t8.5 81v266v74q0 81 8 135.5t36 105t87 94.5q-59 38 -87.5 87.5t-36 109t-7.5 152.5v59v266q0 80 -23.5 104t-118.5 25v121h23q97 0 151 -36.5t75.5 -116t21.5 -209.5v-240q0 -87 6.5 -126.5t35 -66t97.5 -42.5v-175q-49 -10 -78.5 -28 t-42 -45.5t-15.5 -60.5t-3 -101v-238q0 -131 -21.5 -210.5t-75.5 -116.5t-151 -37h-23v123z" />
<glyph unicode="~" d="M39 545q58 76 129 125t127 49q63 0 91.5 -16.5t117.5 -86.5q64 -49 115.5 -70.5t119.5 -21.5q57 0 126.5 32.5t133.5 88.5v174q-54 -73 -128 -123.5t-128 -50.5q-35 0 -57 6t-48 20.5t-58 40.5t-45 36q-57 45 -111.5 68.5t-124.5 23.5q-57 0 -127.5 -33t-132.5 -88v-174z " />
<glyph d="M266 834v598h160v-598h-160zM598 834v598h160v-598h-160z" />
<glyph unicode="&#xa0;" d="M178 1518l213 245h240l213 -245h-146l-188 147l-186 -147h-146zM205 0v1370h698v-137h-543v-461h396v-131h-396v-504h562v-137h-717z" />
<glyph unicode="&#xa1;" d="M369 1255q0 39 19.5 73t52 52.5t71.5 18.5q40 0 72.5 -18.5t51.5 -52.5t19 -73q0 -60 -41.5 -101.5t-101.5 -41.5t-101.5 42.5t-41.5 100.5zM406 0l32 961h146l32 -961h-210z" />
<glyph unicode="&#xa2;" d="M131 487q0 121 26.5 216t78.5 165.5t126.5 111.5t169.5 50l35 336h97l-37 -332q135 -21 223 -90v-160q0 -19 -6.5 -23.5t-24.5 -4.5h-10q-32 0 -38.5 2.5t-11 20t-14.5 36.5q-38 81 -131 84l-84 -790q19 -3 41 -3q119 0 242 138l86 -101q-57 -81 -148.5 -126.5 t-201.5 -45.5q-8 1 -14.5 1.5t-18.5 0.5l-22 -215h-95l25 236q-293 101 -293 493zM289 502q0 -290 149 -369l80 764q-229 -61 -229 -395z" />
<glyph unicode="&#xa3;" d="M68 84q119 90 174 193t55 237q0 58 -16 160h-154v133h139q-22 157 -22 231q0 117 40 200.5t115 127t176 43.5q139 0 218 -77.5t79 -215.5v-4h-137q-3 75 -46.5 117.5t-115.5 42.5q-78 0 -125 -55.5t-47 -149.5q0 -28 2 -54.5t9.5 -94.5t11.5 -111h244v-133h-224 q13 -145 13 -174q0 -64 -11.5 -115t-37 -101.5t-68.5 -105.5q37 6 68 6q62 0 151 -41t129 -41q62 0 94.5 41t32.5 123q0 31 -2 62h133q2 -17 2 -47q0 -106 -33.5 -176.5t-98.5 -107t-159 -36.5q-64 0 -107 15t-115 46t-101 31q-79 0 -174 -78z" />
<glyph unicode="&#xa4;" d="M133 498v872h154v-872q0 -207 51.5 -304.5t179.5 -97.5q84 0 134.5 45t71.5 132.5t21 224.5v872h146v-872v-80q0 -76 -8.5 -135t-34.5 -113q-47 -99 -135.5 -154t-200.5 -55q-102 0 -187 46.5t-135 129.5q-24 43 -36 94.5t-16.5 115.5t-4.5 151zM178 1518l213 245h240 l213 -245h-146l-188 147l-186 -147h-146z" />
<glyph unicode="&#xa7;" d="M18 459l191 188q-80 109 -80 238q0 128 80 235l-191 191l72 71l191 -190q103 82 237 82q131 0 238 -82l188 190l72 -71l-191 -191q80 -105 80 -235q0 -131 -80 -238l191 -188l-72 -72l-188 191q-105 -82 -238 -82q-136 0 -237 82l-191 -191zM231 885q0 -78 38.5 -144 t104 -104.5t144.5 -38.5q78 0 144 38.5t105.5 104t39.5 144.5q0 78 -38.5 144t-105 105.5t-145.5 39.5q-78 0 -144 -39t-104.5 -105.5t-38.5 -144.5z" />
<glyph unicode="&#xa8;" d="M217 1268q0 40 31 71t71 31q20 0 38 -7.5t32.5 -21.5t22.5 -33.5t8 -39.5q0 -45 -29 -75t-72 -30q-44 0 -73 30t-29 75zM602 1268q0 40 31 71t72 31q20 0 38 -7.5t32 -21.5t22 -33.5t8 -39.5q0 -45 -28 -75t-72 -30q-45 0 -74 30t-29 75z" />
<glyph unicode="&#xa9;" d="M100 1004q0 111 55.5 205t152 150t206.5 56q111 0 205.5 -55.5t149.5 -149.5t55 -206q0 -110 -55 -205t-150 -151t-207 -56t-207.5 55.5t-150 150.5t-54.5 206zM174 1004q0 -68 26.5 -130.5t73 -109t108 -72.5t130.5 -26q92 0 169.5 45.5t123 124t45.5 168.5 q0 72 -26.5 133t-72 106t-108.5 71.5t-131 26.5q-92 0 -169.5 -45t-123 -122.5t-45.5 -169.5zM338 1004q0 138 45.5 211t128.5 73q69 0 110.5 -42.5t47.5 -121.5l-95 -8q-6 45 -20.5 63.5t-42.5 18.5q-76 0 -76 -192q0 -101 20.5 -148t63.5 -47q27 0 39 15.5t27 60.5l86 -23 q-32 -143 -154 -143q-180 0 -180 283z" />
<glyph unicode="&#xaa;" d="M223 137l135 365l-135 366h111l178 -366l-178 -365h-111zM496 137l135 365l-135 366h112l176 -366l-176 -365h-112z" />
<glyph unicode="&#xab;" d="M119 684q0 235 50 397.5t146 244t232 81.5q77 0 143 -23.5t112 -66t75 -106.5t36 -146l-151 -12q-35 219 -209 219q-274 0 -274 -586q0 -203 29.5 -332t93 -192.5t165.5 -63.5q86 0 135.5 46t81.5 153l129 -35q-30 -147 -120 -224t-232 -77q-219 0 -330.5 182.5 t-111.5 540.5zM328 -295q159 -37 245 -37q50 0 77.5 20.5t27.5 55.5q0 78 -121 78q-31 0 -57 -2v180h73v-92h27q66 0 115 -19t73.5 -54t24.5 -85q0 -176 -240 -176q-108 0 -245 39v92z" />
<glyph unicode="&#xad;" d="M80 614v148h864v-148h-864z" />
<glyph unicode="&#xae;" d="M100 1004q0 111 55.5 205t152 150t206.5 56q111 0 205.5 -55.5t149.5 -149.5t55 -206q0 -110 -55 -205t-150 -151t-207 -56t-207.5 55.5t-150 150.5t-54.5 206zM174 1004q0 -68 26.5 -130.5t73 -109t108 -72.5t130.5 -26q92 0 169.5 45.5t123 124t45.5 168.5 q0 72 -26.5 133t-72 106t-108.5 71.5t-131 26.5q-92 0 -169.5 -45t-123 -122.5t-45.5 -169.5zM373 788v453h129q81 0 124.5 -35.5t43.5 -103.5q0 -84 -76 -123l108 -191h-108l-88 173h-39v-173h-94zM467 1032h35q34 0 51.5 19t17.5 53q0 59 -69 59h-35v-131z" />
<glyph unicode="&#xaf;" d="M109 514q0 120 29 217.5t81 164.5t126 102.5t167 35.5q124 0 229 -78l72 109l88 -59l-82 -123q52 -84 74 -175.5t22 -205.5q0 -252 -108 -391.5t-295 -139.5q-72 0 -129.5 20t-108.5 64l-71 -102l-90 59l88 127q-92 162 -92 375zM266 500q0 -117 31 -213l365 549 q-79 65 -150 65q-114 0 -180 -105.5t-66 -295.5zM354 178q38 -40 75 -57t83 -17q114 0 180 104.5t66 293.5q0 114 -37 237z" />
<glyph unicode="&#xb0;" d="M310 1204q0 84 59.5 142t142.5 58q55 0 101 -27.5t73 -72.5t27 -100q0 -86 -58 -144t-143 -58q-86 0 -144 59.5t-58 142.5zM408 1204q0 -41 31.5 -72.5t72.5 -31.5q42 0 71 31t29 73t-28.5 70.5t-71.5 28.5q-42 0 -73 -29.5t-31 -69.5z" />
<glyph unicode="&#xb1;" d="M127 193v131h768v-131h-768zM127 741v131h315v330h140v-330h313v-131h-313v-311h-140v311h-315z" />
<glyph unicode="&#xb4;" d="M233 502l177 366h110l-133 -366l133 -365h-110zM506 502l176 366h111l-134 -366l134 -365h-111z" />
<glyph unicode="&#xb6;" d="M451 -352v760h120v-760h-120zM451 674v758h120v-758h-120z" />
<glyph unicode="&#xb8;" d="M156 377v629h149v-609q0 -95 10 -152.5t40 -88.5t91 -31q72 0 130 58.5t92 173.5t34 272v377h150v-635q0 -174 37 -371h-148q-19 110 -26 178q-102 -190 -279 -190q-103 0 -165 43t-88.5 128t-26.5 218zM217 1268q0 40 31 71t71 31q20 0 38 -7.5t32.5 -21.5t22.5 -33.5 t8 -39.5q0 -45 -29 -75t-72 -30q-44 0 -73 30t-29 75zM602 1268q0 40 31 71t72 31q20 0 38 -7.5t32 -21.5t22 -33.5t8 -39.5q0 -45 -28 -75t-72 -30q-45 0 -74 30t-29 75z" />
<glyph unicode="&#xbb;" d="M205 0v1370h698v-137h-543v-461h396v-131h-396v-504h562v-137h-717zM252 1632l55 156l189 -84l272 -105l-37 -100z" />
<glyph unicode="&#xbc;" d="M18 281l928 557l58 -111l-930 -559zM80 688v119h164v438l-164 -37v107l190 80h101v-588h147v-119h-438zM373 -72l286 465h209v-465h136v-112h-136v-129h-129v129h-366v112zM492 -72h247v406z" />
<glyph unicode="&#xbf;" d="M174 262q0 67 32 145.5t91 145.5q19 21 76.5 74.5t81.5 93.5t24 102v138h148v-160q0 -68 -12.5 -108.5t-34 -66.5t-68.5 -69q-61 -55 -97 -94.5t-57.5 -83.5t-21.5 -98q0 -77 46.5 -122.5t131.5 -45.5q83 0 133.5 47.5t50.5 124.5h136q0 -96 -39.5 -167.5t-114.5 -109 t-178 -37.5q-97 0 -172 37t-115.5 102.5t-40.5 151.5zM397 1264q0 62 41.5 102.5t102.5 40.5q40 0 73 -18.5t51.5 -51.5t18.5 -73q0 -61 -41.5 -102.5t-101.5 -41.5t-102 42t-42 102z" />
<glyph unicode="&#xc0;" d="M49 0l346 1389h234l346 -1389h-160l-100 412h-414l-98 -412h-154zM252 1632l55 156l189 -84l272 -105l-37 -100zM332 543h354q-88 377 -178 768q-16 -86 -57.5 -266.5t-118.5 -501.5z" />
<glyph unicode="&#xc1;" d="M49 0l346 1389h234l346 -1389h-160l-100 412h-414l-98 -412h-154zM254 1599l272 105l191 84l53 -156l-479 -133zM332 543h354q-88 377 -178 768q-16 -86 -57.5 -266.5t-118.5 -501.5z" />
<glyph unicode="&#xc2;" d="M49 0l346 1389h234l346 -1389h-160l-100 412h-414l-98 -412h-154zM178 1518l213 245h240l213 -245h-146l-188 147l-186 -147h-146zM332 543h354q-88 377 -178 768q-16 -86 -57.5 -266.5t-118.5 -501.5z" />
<glyph unicode="&#xc3;" d="M49 0l346 1389h234l346 -1389h-160l-100 412h-414l-98 -412h-154zM178 1540q22 89 81 131.5t161 42.5q36 0 74 -6l124 -20q9 -1 24 -3t20 -2q70 0 106 64h76q-19 -88 -80.5 -131t-165.5 -43q-19 0 -55 4l-121 20q-32 7 -66 7q-65 0 -102 -64h-76zM332 543h354 q-88 377 -178 768q-16 -86 -57.5 -266.5t-118.5 -501.5z" />
<glyph unicode="&#xc6;" d="M4 0l342 1370h619v-137h-334v-461h260v-131h-260v-504h368v-137h-505v475h-226l-114 -475h-150zM299 608h195v625h-54z" />
<glyph unicode="&#xca;" d="M8 289q0 152 94.5 233.5t274.5 81.5q15 0 24.5 -0.5t20.5 -1.5q4 58 4 78q0 231 -145 231q-82 0 -160 -80l-45 123q116 80 223 80q118 0 213 -98q85 98 197 98q99 0 163.5 -53.5t94.5 -162t30 -279.5v-47h-422v-46q0 -178 41.5 -261t139.5 -83q78 0 190 93l47 -123 q-147 -99 -270 -99q-78 0 -136.5 31.5t-109.5 101.5q-66 -133 -215 -133q-119 0 -186.5 85t-67.5 231zM139 283q0 -86 39.5 -133.5t108.5 -47.5q135 0 135 199v191h-31q-252 0 -252 -209zM575 686q0 -9 5 -82h270q1 11 1.5 19.5t0.5 21.5q0 129 -40 197.5t-105 68.5 q-62 0 -97 -58.5t-35 -166.5z" />
<glyph unicode="&#xcb;" d="M119 502q0 162 52 283t146 185t215 64q89 0 160.5 -33t123.5 -97.5t79 -157.5t27 -214q0 -40 -2 -61h-631v-35q0 -163 66.5 -247.5t195.5 -84.5q62 0 131.5 22.5t157.5 68.5l63 -123q-204 -101 -360 -101q-204 0 -314 136.5t-110 394.5zM252 1257l55 156l189 -84 l272 -104l-37 -101zM293 604h467q-9 145 -70 221t-164 76q-67 0 -119 -35t-81.5 -100.5t-32.5 -161.5z" />
<glyph unicode="&#xcc;" d="M205 872v134h403v-1006h-149v872h-254zM254 1225l272 104l191 84l53 -156l-479 -133z" />
<glyph unicode="&#xcd;" d="M119 502q0 162 52 283t146 185t215 64q89 0 160.5 -33t123.5 -97.5t79 -157.5t27 -214q0 -40 -2 -61h-631v-35q0 -163 66.5 -247.5t195.5 -84.5q62 0 131.5 22.5t157.5 68.5l63 -123q-204 -101 -360 -101q-204 0 -314 136.5t-110 394.5zM178 1143l213 246h240l213 -246 h-146l-188 147l-186 -147h-146zM293 604h467q-9 145 -70 221t-164 76q-67 0 -119 -35t-81.5 -100.5t-32.5 -161.5z" />
<glyph unicode="&#xce;" d="M119 502q0 162 52 283t146 185t215 64q89 0 160.5 -33t123.5 -97.5t79 -157.5t27 -214q0 -40 -2 -61h-631v-35q0 -163 66.5 -247.5t195.5 -84.5q62 0 131.5 22.5t157.5 68.5l63 -123q-204 -101 -360 -101q-204 0 -314 136.5t-110 394.5zM217 1268q0 40 31 71t71 31 q20 0 38 -7.5t32.5 -21.5t22.5 -33.5t8 -39.5q0 -45 -29 -75t-72 -30q-44 0 -73 30t-29 75zM293 604h467q-9 145 -70 221t-164 76q-67 0 -119 -35t-81.5 -100.5t-32.5 -161.5zM602 1268q0 40 31 71t72 31q20 0 38 -7.5t32 -21.5t22 -33.5t8 -39.5q0 -45 -28 -75t-72 -30 q-45 0 -74 30t-29 75z" />
<glyph unicode="&#xcf;" d="M205 872v134h403v-1006h-149v872h-254zM252 1257l55 156l189 -84l272 -104l-37 -101z" />
<glyph unicode="&#xd0;" d="M303 -295v-92q133 -39 246 -39q239 0 239 176q0 51 -24 84q-23 37 -74 55q-45 19 -115 19h-26v92h-74v-180q19 2 57 2q121 0 121 -78q0 -35 -26.5 -55.5t-77.5 -20.5q-81 0 -246 37z" />
<glyph unicode="&#xd1;" d="M205 872h254v-872h149v1006h-403v-134z" />
<glyph unicode="&#xd2;" d="M131 1006h148q19 -112 26 -181q50 94 121 143.5t156 49.5q155 0 218.5 -94.5t63.5 -294.5v-629h-149v608q0 96 -11 153.5t-43 88.5t-90 31q-72 0 -129.5 -58.5t-91 -172t-33.5 -273.5v-377h-149v635q0 173 -37 371zM178 1165q22 89 81 131.5t161 42.5q36 0 74 -6l124 -20 q34 -4 44 -4q37 0 62.5 15t43.5 48h76q-19 -88 -80.5 -131t-165.5 -43q-19 0 -55 4l-121 21q-34 6 -66 6q-65 0 -102 -64h-76z" />
<glyph unicode="&#xd3;" d="M178 1143l213 246h240l213 -246h-146l-188 147l-186 -147h-146zM205 872v134h403v-1006h-149v872h-254z" />
<glyph unicode="&#xd4;" d="M205 872v134h403v-1006h-149v872h-254zM217 1268q0 40 31 71t71 31q20 0 38 -7.5t32.5 -21.5t22.5 -33.5t8 -39.5q0 -45 -29 -75t-72 -30q-44 0 -73 30t-29 75zM602 1268q0 40 31 71t72 31q20 0 38 -7.5t32 -21.5t22 -33.5t8 -39.5q0 -45 -28 -75t-72 -30q-45 0 -74 30 t-29 75z" />
<glyph unicode="&#xd5;" d="M254 1599l272 105l191 84l53 -156l-479 -133zM258 0v135h176v1100h-176v135h506v-135h-176v-1100h176v-135h-506z" />
<glyph unicode="&#xd8;" d="M236 1214v105h552v-105h-552z" />
<glyph unicode="&#xd9;" d="M109 502q0 251 108 391.5t295 140.5t295 -140.5t108 -391.5q0 -252 -108 -391.5t-295 -139.5t-295 139.5t-108 391.5zM178 1143l213 246h240l213 -246h-146l-188 147l-186 -147h-146zM266 502q0 -189 66.5 -293.5t179.5 -104.5q114 0 180 104.5t66 293.5q0 191 -65.5 295 t-180.5 104q-113 0 -179.5 -104t-66.5 -295z" />
<glyph unicode="&#xda;" d="M109 502q0 251 108 391.5t295 140.5t295 -140.5t108 -391.5q0 -252 -108 -391.5t-295 -139.5t-295 139.5t-108 391.5zM252 1257l55 156l189 -84l272 -104l-37 -101zM266 502q0 -189 66.5 -293.5t179.5 -104.5q114 0 180 104.5t66 293.5q0 191 -65.5 295t-180.5 104 q-113 0 -179.5 -104t-66.5 -295z" />
<glyph unicode="&#xdb;" d="M109 502q0 251 108 391.5t295 140.5t295 -140.5t108 -391.5q0 -252 -108 -391.5t-295 -139.5t-295 139.5t-108 391.5zM254 1225l272 104l191 84l53 -156l-479 -133zM266 502q0 -189 66.5 -293.5t179.5 -104.5q114 0 180 104.5t66 293.5q0 191 -65.5 295t-180.5 104 q-113 0 -179.5 -104t-66.5 -295z" />
<glyph unicode="&#xde;" d="M197 0h153v283h105q155 0 262 49q110 51 162 145q55 101 55 234q0 204 -109 307q-107 104 -321 104h-154v248h-153v-1370zM350 410v587h156q138 0 203 -71q65 -74 65 -224q0 -143 -67 -217q-66 -75 -199 -75h-158z" />
<glyph unicode="&#xdf;" d="M180 623q0 94 40 159.5t128 130.5q-121 109 -121 226q0 113 82 190.5t209 77.5q225 0 281 -209l-117 -45q-18 68 -60.5 104.5t-103.5 36.5q-42 0 -77 -16.5t-55.5 -48t-20.5 -70.5q0 -58 33.5 -98.5t103.5 -87.5l164 -109q178 -115 178 -280q0 -78 -46.5 -151 t-125.5 -120q121 -104 121 -223q0 -113 -84 -191.5t-207 -78.5q-225 0 -281 211l117 47q41 -144 166 -144q65 0 108 42t43 102q0 56 -33.5 95.5t-103.5 84.5l-164 107q-174 114 -174 258zM313 655q0 -67 35 -110.5t113 -93.5l117 -76q60 32 94.5 88t34.5 115 q0 69 -36.5 111.5t-113.5 90.5l-115 74q-40 -21 -69.5 -53t-44.5 -69t-15 -77z" />
<glyph unicode="&#xe0;" d="M141 0h150v1087q0 232 190 232q100 0 156 -57q53 -59 53 -162q0 -115 -63 -185q-60 -72 -174 -81v-134h12q154 0 223 -75q72 -77 72 -234q0 -138 -49 -213q-50 -74 -138 -74q-66 0 -151 52l-57 -121q97 -64 213 -64q77 0 139 29q61 26 110 82q47 56 70 133q23 84 23 176 q0 358 -295 397q110 37 170 121q59 82 59 197q0 76 -25 139t-73 107q-46 44 -115 69q-69 23 -152 23q-235 0 -315 -176q-23 -57 -27 -107q-6 -52 -6 -125v-30v-1006z" />
<glyph unicode="&#xe1;" d="M109 502q0 -253 108 -391q108 -140 295 -140q85 0 166 35q74 38 127 103q48 59 82 161q28 100 28 213q0 354 -278 729l229 86l-37 54l-233 -88q-33 43 -84 88q-60 48 -109 75h-198q193 -116 262 -210l-209 -78l37 -54l221 78q62 -94 78 -135q-52 6 -82 6 q-187 0 -295 -141q-108 -138 -108 -391zM266 502q0 188 66 295q68 104 180 104q115 0 180 -104q66 -107 66 -295q0 -186 -66 -293q-67 -105 -180 -105q-112 0 -180 105q-66 107 -66 293z" />
<glyph unicode="&#xe2;" horiz-adv-x="29" />
<glyph unicode="&#xe3;" />
<glyph unicode="&#xe4;" />
<glyph unicode="&#xe5;" />
<glyph unicode="&#xe6;" d="M18 289l928 559l58 -113l-930 -557zM57 786l107 72q67 -100 170 -100q56 0 89.5 31.5t33.5 84.5q0 119 -140 119q-28 0 -43 -2v113h19q151 0 151 98q0 46 -29 72t-81 26q-74 0 -144 -81l-88 73q49 60 111.5 88.5t144.5 28.5q70 0 123.5 -24.5t83 -66t29.5 -89.5 q0 -112 -135 -174q155 -38 155 -176q0 -69 -33 -120t-96.5 -78.5t-148.5 -27.5q-187 0 -279 133zM356 -72l289 465h209v-465h133v-112h-133v-129h-131v129h-367v112zM473 -72h250v406z" />
<glyph unicode="&#xe7;" />
<glyph unicode="&#xe8;" d="M182 408h660v190h-660v-190z" />
<glyph unicode="&#xe9;" d="M0 438h1024v144h-1024v-144z" />
<glyph unicode="&#xea;" d="M0 438h1024v144h-1024v-144z" />
<glyph unicode="&#xeb;" d="M164 877h285v-1053h126v1053h285v118h-285v414h-126v-414h-285v-118z" />
<glyph unicode="&#xec;" d="M164 274h285v-450h126v450h285v119h-285v484h285v118h-285v414h-126v-414h-285v-118h285v-484h-285v-119z" />
<glyph unicode="&#xed;" d="M369 502l176 -365h110l-133 365l133 366h-110z" />
<glyph unicode="&#xee;" d="M369 137h110l176 365l-176 366h-110l133 -366z" />
<glyph unicode="&#xef;" d="M266 268v-598h160v598h-160zM598 268v-598h160v598h-160z" />
<glyph unicode="&#xf0;" d="M-6 608l26 -100l1010 387l-31 100zM96 197q0 -99 54 -156q51 -59 139 -59q57 0 112 47q54 44 88 127q33 76 33 170q0 64 -24 112q-26 48 -68 74q-45 25 -100 25q-62 0 -113 -48q-53 -43 -88 -124q-33 -75 -33 -168zM131 1036q0 -93 53 -157q52 -58 140 -58q58 0 112 47 q54 45 88 127q35 82 35 170q0 61 -24.5 110.5t-67.5 74.5q-42 26 -102 26q-57 0 -113 -47q-55 -46 -88 -123q-33 -76 -33 -170zM188 178q0 69 23 131q20 62 55 105q37 41 70 41q98 0 98 -121q0 -95 -47 -184q-49 -87 -100 -87q-99 0 -99 115zM221 1016q0 101 47 188 q47 88 99 88q100 0 100 -121q0 -94 -47 -182q-47 -86 -101 -86q-98 0 -98 113zM582 197q0 -97 53 -156t139 -59q60 0 113 47q52 42 88 127q33 79 33 170q0 62 -25 112q-20 45 -65 74q-48 25 -103 25q-59 0 -113 -48q-51 -43 -88 -124q-32 -79 -32 -168zM674 178q0 63 22 131 q23 66 56 105q32 41 67 41q101 0 101 -121q0 -98 -48 -184q-45 -87 -100 -87q-98 0 -98 115z" />
<glyph unicode="&#xf1;" d="M86 -446l107 -39l751 2011l-106 39z" />
<glyph unicode="&#xf2;" d="M35 -375q33 -18 63 -24q33 -7 68 -7q89 0 158 37q70 39 108 111q40 69 55 182l97 787h155l15 123h-154l29 239q24 201 149 201q43 0 88 -27l64 117q-79 43 -154 43q-127 0 -205 -82q-77 -86 -98 -250l-29 -241h-143l-14 -123h141l-94 -768q-12 -106 -53 -158 q-42 -51 -117 -51q-48 0 -82 28z" />
<glyph unicode="&#xf3;" d="M143 387q0 -210 95 -315q97 -111 272 -111q371 0 371 422v987h-154v-917q0 -123 -16 -205q-21 -79 -66 -113q-48 -37 -129 -37q-107 0 -166 80q-57 82 -57 232q0 47 2 59h-150q-2 -18 -2 -82zM143 584h152v786h-152v-786z" />
<glyph unicode="&#xf4;" d="M59 684q0 -713 412 -713q25 0 154 29h438v137h-371v504h258v131h-258v461h332v137h-389q-119 29 -164 29q-412 0 -412 -715zM215 686q0 586 252 586q25 0 72 -12v-1147q-48 -15 -74 -15q-80 0 -137 66q-58 67 -84 196q-29 131 -29 326z" />
<glyph unicode="&#xf5;" d="M0 872h186v-872h150v1006h-336v-134zM150 1288q0 -45 32 -78q34 -32 78 -32q47 0 80 32q31 33 31 78q0 46 -31 80q-34 31 -80 31q-47 0 -78.5 -31.5t-31.5 -79.5zM254 -61v-17q0 -97 84 -160q81 -63 209 -63q112 0 180 45q72 42 107 133q32 96 32 221v908h-360v-134h211 v-774q0 -148 -33 -207q-32 -63 -139 -63q-57 0 -94 29q-35 31 -41 82h-156zM662 1288q0 -46 30 -78q31 -32 78 -32t78 32q33 31 33 78t-33 80q-31 31 -78 31q-46 0 -76 -33q-32 -29 -32 -78z" />
<glyph unicode="&#xf6;" d="M8 502q0 -169 37 -287q34 -120 102 -182q70 -62 156 -62q116 0 207 125q42 -65 96 -96q56 -29 127 -29q123 0 273 101l-48 123q-109 -93 -192 -93q-67 0 -104 37q-40 37 -58 113q-16 78 -16 192v48h416q1 36 2.5 63.5t1.5 33.5v9q0 214 -74 326q-74 110 -213 110 q-120 0 -209 -121q-77 121 -209 121q-65 0 -121 -35q-52 -34 -94 -104q-36 -63 -59 -170q-21 -95 -21 -223zM152 502q0 134 18 223q19 91 53 133q33 45 80 45q44 0 82 -47q32 -41 51 -133q17 -100 17 -221t-17 -221q-19 -93 -51 -134q-37 -45 -82 -45t-80 45q-35 42 -53 134 q-18 88 -18 221zM588 686q0 109 35 168q34 57 96 57q66 0 104 -69q41 -68 41 -197v-22q-2 -5 -2 -19h-270q-4 78 -4 82z" />
<glyph unicode="&#xf7;" d="M84 684q0 174 28 310.5t83 228t134.5 138t182.5 46.5q104 0 184 -46.5t133.5 -136t82 -224.5t28.5 -316q0 -354 -110.5 -538.5t-317.5 -184.5q-137 0 -233 82t-145.5 244t-49.5 397zM217 1642q0 42 30.5 72.5t71.5 30.5q42 0 71.5 -29.5t29.5 -73.5q0 -30 -13 -53.5 t-36.5 -37t-51.5 -13.5q-44 0 -73 30t-29 74zM244 721q0 -315 65 -469t203 -154q268 0 268 588q0 586 -268 586q-63 0 -113 -35t-85 -107t-52.5 -172.5t-17.5 -236.5zM602 1642q0 42 30.5 72.5t72.5 30.5t71 -30t29 -73q0 -30 -13 -53.5t-36.5 -37t-50.5 -13.5q-45 0 -74 30 t-29 74z" />
<glyph unicode="&#xf9;" d="M72 872h114v-872h150v872h373v-872h149v1006h-522v81q0 232 188 232q77 0 121 -29q44 -31 53 -84h138q0 70 -37 129q-39 54 -103 80q-62 29 -155 29q-182 0 -269 -94q-88 -92 -88 -285q0 -45 2 -59h-114v-134z" />
<glyph unicode="&#xfa;" d="M72 872h114v-872h150v872h270v134h-270v81q0 121 37 179q38 57 121 57q70 0 131 -49l61 106q-79 64 -194 64q-154 0 -232 -90q-76 -92 -76 -275q0 -55 2 -73h-114v-134zM709 0h149v1444h-147z" />
<glyph unicode="&#xfb;" d="M252 1257l479 -133l37 101l-272 104l-189 84z" />
<glyph unicode="&#xfc;" d="M254 1225l37 -101l479 133l-53 156l-191 -84z" />
<glyph unicode="&#xfd;" d="M178 1143h146l186 147l188 -147h146l-213 246h-240z" />
<glyph unicode="&#xfe;" d="M178 1165h76q37 64 102 64q31 0 66 -6l121 -21q48 -4 55 -4q105 0 166 43t80 131h-76q-19 -35 -43 -47q-29 -16 -63 -16l-44 4l-124 20q-37 6 -74 6q-101 0 -162 -43q-58 -41 -80 -131z" />
<glyph unicode="&#xff;" d="M33 27l117 192q-36 106 -51 222t-15 243q0 174 28 310.5t83 228t134.5 138t182.5 46.5q164 0 285 -133l86 141l96 -59l-117 -195q49 -109 63.5 -218.5t14.5 -258.5q0 -354 -110.5 -538.5t-317.5 -184.5q-90 0 -162 36.5t-135 111.5l-90 -148zM244 700q0 -99 20 -299 l447 729q-69 142 -199 142q-132 0 -200 -144t-68 -428zM307 254q70 -156 205 -156q131 0 199.5 143.5t68.5 424.5q0 82 -26 321z" />
<glyph unicode="&#x152;" d="M178 1518l213 245h240l213 -245h-146l-188 147l-186 -147h-146zM258 0v135h176v1100h-176v135h506v-135h-176v-1100h176v-135h-506z" />
<glyph unicode="&#x153;" d="M217 1642q0 42 30.5 72.5t71.5 30.5q42 0 71.5 -29.5t29.5 -73.5q0 -30 -13 -53.5t-36.5 -37t-51.5 -13.5q-44 0 -73 30t-29 74zM258 0v135h176v1100h-176v135h506v-135h-176v-1100h176v-135h-506zM602 1642q0 42 30.5 72.5t72.5 30.5t71 -30t29 -73q0 -30 -13 -53.5 t-36.5 -37t-50.5 -13.5q-45 0 -74 30t-29 74z" />
<glyph unicode="&#x178;" d="M133 498v872h154v-872q0 -207 51.5 -304.5t179.5 -97.5q84 0 134.5 45t71.5 132.5t21 224.5v872h146v-872v-80q0 -76 -8.5 -135t-34.5 -113q-47 -99 -135.5 -154t-200.5 -55q-102 0 -187 46.5t-135 129.5q-24 43 -36 94.5t-16.5 115.5t-4.5 151zM252 1632l55 156l189 -84 l272 -105l-37 -100z" />
<glyph unicode="&#x2c6;" d="M109 502q0 251 108 391.5t295 140.5t295 -140.5t108 -391.5q0 -252 -108 -391.5t-295 -139.5t-295 139.5t-108 391.5zM217 1268q0 40 31 71t71 31q20 0 38 -7.5t32.5 -21.5t22.5 -33.5t8 -39.5q0 -45 -29 -75t-72 -30q-44 0 -73 30t-29 75zM266 502q0 -189 66.5 -293.5 t179.5 -104.5q114 0 180 104.5t66 293.5q0 191 -65.5 295t-180.5 104q-113 0 -179.5 -104t-66.5 -295zM602 1268q0 40 31 71t72 31q20 0 38 -7.5t32 -21.5t22 -33.5t8 -39.5q0 -45 -28 -75t-72 -30q-45 0 -74 30t-29 75z" />
<glyph unicode="&#x2000;" horiz-adv-x="894" />
<glyph unicode="&#x2001;" horiz-adv-x="1788" />
<glyph unicode="&#x2002;" horiz-adv-x="894" />
<glyph unicode="&#x2003;" horiz-adv-x="1788" />
<glyph unicode="&#x2004;" horiz-adv-x="596" />
<glyph unicode="&#x2005;" horiz-adv-x="447" />
<glyph unicode="&#x2006;" horiz-adv-x="298" />
<glyph unicode="&#x2007;" horiz-adv-x="298" />
<glyph unicode="&#x2008;" horiz-adv-x="223" />
<glyph unicode="&#x2009;" horiz-adv-x="357" />
<glyph unicode="&#x200a;" horiz-adv-x="99" />
<glyph unicode="&#x2010;" d="M80 614v148h864v-148h-864z" />
<glyph unicode="&#x2011;" d="M80 614v148h864v-148h-864z" />
<glyph unicode="&#x2012;" d="M80 614v148h864v-148h-864z" />
<glyph unicode="&#x2013;" d="M0 659v95h147v616h312q128 0 218 -40.5t148 -123.5t86.5 -212.5t28.5 -309.5q0 -179 -28.5 -308.5t-86.5 -211.5t-148.5 -123t-217.5 -41h-312v659h-147zM303 131h146q93 0 157.5 31t101.5 95.5t53.5 170t16.5 258.5t-16.5 258.5t-53.5 170t-99.5 94.5t-159.5 30h-146 v-485h272v-95h-272v-528z" />
<glyph unicode="&#x2014;" d="M139 0v1370h203l346 -852q29 -73 76 -239q-13 281 -20 542q-7 260 -9 549h150v-1395h-127l-484 1184q3 -558 15 -1159h-150zM178 1540q22 89 81 131.5t161 42.5q36 0 74 -6l124 -20q9 -1 24 -3t20 -2q70 0 106 64h76q-19 -88 -80.5 -131t-165.5 -43q-19 0 -55 4l-121 20 q-32 7 -66 7q-65 0 -102 -64h-76z" />
<glyph unicode="&#x2018;" d="M84 684q0 174 28 310.5t83 228t134.5 138t182.5 46.5q104 0 184 -46.5t133.5 -136t82 -224.5t28.5 -316q0 -354 -110.5 -538.5t-317.5 -184.5q-137 0 -233 82t-145.5 244t-49.5 397zM178 1518l213 245h240l213 -245h-146l-188 147l-186 -147h-146zM244 721 q0 -315 65 -469t203 -154q268 0 268 588q0 586 -268 586q-63 0 -113 -35t-85 -107t-52.5 -172.5t-17.5 -236.5z" />
<glyph unicode="&#x2019;" d="M84 684q0 174 28 310.5t83 228t134.5 138t182.5 46.5q104 0 184 -46.5t133.5 -136t82 -224.5t28.5 -316q0 -354 -110.5 -538.5t-317.5 -184.5q-137 0 -233 82t-145.5 244t-49.5 397zM178 1540q22 89 81 131.5t161 42.5q36 0 74 -6l124 -20q9 -1 24 -3t20 -2q70 0 106 64 h76q-19 -88 -80.5 -131t-165.5 -43q-19 0 -55 4l-121 20q-32 7 -66 7q-65 0 -102 -64h-76zM244 721q0 -315 65 -469t203 -154q268 0 268 588q0 586 -268 586q-63 0 -113 -35t-85 -107t-52.5 -172.5t-17.5 -236.5z" />
<glyph unicode="&#x201a;" d="M131 307q0 106 42.5 187.5t119.5 124.5t180 43q29 0 71 -6t115 -21q5 30 5 55q0 103 -52 158t-147 55q-101 0 -186 -72l-56 123q133 80 264 80q139 0 224 -71q45 -36 66.5 -82.5t26.5 -97.5t5 -144v-340q0 -70 6 -105.5t30.5 -61.5t76.5 -40l-60 -123q-69 15 -109 46.5 t-63 90.5q-44 -63 -112 -96t-146 -33q-87 0 -156 41.5t-107 118t-38 170.5zM178 1143l213 246h240l213 -246h-146l-188 147l-186 -147h-146zM287 319q0 -103 52 -161t142 -58q178 0 178 240v172q-108 25 -163 25q-99 0 -154 -59t-55 -159z" />
<glyph unicode="&#x201c;" d="M84 684q0 174 28 310.5t83 228t134.5 138t182.5 46.5q104 0 184 -46.5t133.5 -136t82 -224.5t28.5 -316q0 -354 -110.5 -538.5t-317.5 -184.5q-137 0 -233 82t-145.5 244t-49.5 397zM244 721q0 -315 65 -469t203 -154q268 0 268 588q0 586 -268 586q-63 0 -113 -35 t-85 -107t-52.5 -172.5t-17.5 -236.5zM252 1632l55 156l189 -84l272 -105l-37 -100z" />
<glyph unicode="&#x201d;" d="M84 684q0 174 28 310.5t83 228t134.5 138t182.5 46.5q104 0 184 -46.5t133.5 -136t82 -224.5t28.5 -316q0 -354 -110.5 -538.5t-317.5 -184.5q-137 0 -233 82t-145.5 244t-49.5 397zM244 721q0 -315 65 -469t203 -154q268 0 268 588q0 586 -268 586q-63 0 -113 -35 t-85 -107t-52.5 -172.5t-17.5 -236.5zM254 1599l272 105l191 84l53 -156l-479 -133z" />
<glyph unicode="&#x201e;" d="M131 307q0 106 42.5 187.5t119.5 124.5t180 43q29 0 71 -6t115 -21q5 30 5 55q0 103 -52 158t-147 55q-101 0 -186 -72l-56 123q133 80 264 80q139 0 224 -71q45 -36 66.5 -82.5t26.5 -97.5t5 -144v-340q0 -70 6 -105.5t30.5 -61.5t76.5 -40l-60 -123q-69 15 -109 46.5 t-63 90.5q-44 -63 -112 -96t-146 -33q-87 0 -156 41.5t-107 118t-38 170.5zM178 1165q22 89 81 131.5t161 42.5q36 0 74 -6l124 -20q34 -4 44 -4q37 0 62.5 15t43.5 48h76q-19 -88 -80.5 -131t-165.5 -43q-19 0 -55 4l-121 21q-34 6 -66 6q-65 0 -102 -64h-76zM287 319 q0 -103 52 -161t142 -58q178 0 178 240v172q-108 25 -163 25q-99 0 -154 -59t-55 -159z" />
<glyph unicode="&#x2022;" d="M76 612v78h332l-80 178h-252v76h219l-195 426h172l248 -606l236 606h149l-172 -426h213v-76h-246l-69 -178h315v-78h-350v-612h-156v612h-364z" />
<glyph unicode="&#x2026;" d="M205 0v1370h698v-137h-543v-461h396v-131h-396v-504h562v-137h-717zM254 1599l272 105l191 84l53 -156l-479 -133z" />
<glyph unicode="&#x202f;" horiz-adv-x="357" />
<glyph unicode="&#x2039;" d="M133 498v872h154v-872q0 -207 51.5 -304.5t179.5 -97.5q84 0 134.5 45t71.5 132.5t21 224.5v872h146v-872v-80q0 -76 -8.5 -135t-34.5 -113q-47 -99 -135.5 -154t-200.5 -55q-102 0 -187 46.5t-135 129.5q-24 43 -36 94.5t-16.5 115.5t-4.5 151zM217 1642q0 42 30.5 72.5 t71.5 30.5q42 0 71.5 -29.5t29.5 -73.5q0 -30 -13 -53.5t-36.5 -37t-51.5 -13.5q-44 0 -73 30t-29 74zM602 1642q0 42 30.5 72.5t72.5 30.5t71 -30t29 -73q0 -30 -13 -53.5t-36.5 -37t-50.5 -13.5q-45 0 -74 30t-29 74z" />
<glyph unicode="&#x203a;" d="M109 1370h172l247 -606l236 606h149l-309 -766v-604h-155v575zM254 1599l272 105l191 84l53 -156l-479 -133z" />
<glyph unicode="&#x205f;" horiz-adv-x="447" />
<glyph unicode="&#x2122;" d="M156 809q0 87 37 152t105.5 100t162.5 35q61 0 162 -21v15q0 54 -20 93t-58.5 60t-93.5 21q-80 0 -162 -58l-51 123q118 64 237 64q179 0 252 -103q25 -34 32 -80.5t7 -132.5v-266q0 -58 5.5 -86.5t26 -48t68.5 -31.5l-61 -108q-45 8 -73 21t-49 35.5t-34 53.5 q-22 -39 -51.5 -61t-69.5 -31.5t-92 -9.5q-88 0 -150.5 32.5t-96 91.5t-33.5 140zM309 821q0 -69 42.5 -109t119.5 -40q74 0 112 42.5t38 121.5v114q-96 19 -129 19q-89 0 -136 -40t-47 -108z" />
<glyph unicode="&#x25fc;" horiz-adv-x="1004" d="M0 0v1005h1005v-1005h-1005z" />
</font>
</defs>
</svg>
